<mxfile host="app.diagrams.net" modified="2021-05-12T20:48:52.035Z" agent="5.0 (X11)" etag="rA0aSQdjb4gOSeIpHd3j" version="14.6.12" type="github">
  <diagram name="Page-1" id="822b0af5-4adb-64df-f703-e8dfc1f81529">
    <mxGraphModel dx="2254" dy="875" grid="1" gridSize="10" guides="1" tooltips="1" connect="1" arrows="1" fold="1" page="1" pageScale="1" pageWidth="1600" pageHeight="1600" background="#ffffff" math="0" shadow="0">
      <root>
        <mxCell id="0" />
        <mxCell id="1" parent="0" />
        <mxCell id="7d933b09d9755ecc-4" value="" style="verticalLabelPosition=bottom;aspect=fixed;html=1;verticalAlign=top;strokeColor=none;shape=mxgraph.citrix.directory_server;rounded=0;shadow=0;comic=0;fontFamily=Verdana;" parent="1" vertex="1">
          <mxGeometry x="1060" y="510" width="65" height="88.5" as="geometry" />
        </mxCell>
        <mxCell id="7d933b09d9755ecc-9" value="" style="verticalLabelPosition=bottom;aspect=fixed;html=1;verticalAlign=top;strokeColor=none;shape=mxgraph.citrix.tower_server;rounded=0;shadow=0;comic=0;fontFamily=Verdana;" parent="1" vertex="1">
          <mxGeometry x="480" y="511.75" width="65" height="85" as="geometry" />
        </mxCell>
        <mxCell id="7d933b09d9755ecc-17" value="" style="verticalLabelPosition=bottom;aspect=fixed;html=1;verticalAlign=top;strokeColor=none;shape=mxgraph.citrix.tower_server;rounded=0;shadow=0;comic=0;fontFamily=Verdana;" parent="1" vertex="1">
          <mxGeometry x="890" y="510" width="65" height="85" as="geometry" />
        </mxCell>
        <mxCell id="7d933b09d9755ecc-21" value="" style="verticalLabelPosition=bottom;aspect=fixed;html=1;verticalAlign=top;strokeColor=none;shape=mxgraph.citrix.tower_server;rounded=0;shadow=0;comic=0;fontFamily=Verdana;" parent="1" vertex="1">
          <mxGeometry x="1300" y="513.5" width="65" height="85" as="geometry" />
        </mxCell>
        <mxCell id="zefjH6aqXYO2TZg6d5o2-4" value="" style="endArrow=classic;html=1;entryX=0.569;entryY=-0.047;entryDx=0;entryDy=0;entryPerimeter=0;" edge="1" parent="1" target="7d933b09d9755ecc-17">
          <mxGeometry width="50" height="50" relative="1" as="geometry">
            <mxPoint x="1090" y="506" as="sourcePoint" />
            <mxPoint x="970" y="540" as="targetPoint" />
            <Array as="points" />
          </mxGeometry>
        </mxCell>
        <mxCell id="zefjH6aqXYO2TZg6d5o2-6" value="" style="endArrow=classic;html=1;entryX=0.308;entryY=1;entryDx=0;entryDy=0;entryPerimeter=0;" edge="1" parent="1" target="7d933b09d9755ecc-21">
          <mxGeometry width="50" height="50" relative="1" as="geometry">
            <mxPoint x="920" y="598.5" as="sourcePoint" />
            <mxPoint x="1320" y="620" as="targetPoint" />
          </mxGeometry>
        </mxCell>
        <mxCell id="zefjH6aqXYO2TZg6d5o2-7" value="" style="endArrow=classic;html=1;entryX=0.477;entryY=-0.018;entryDx=0;entryDy=0;entryPerimeter=0;" edge="1" parent="1" target="7d933b09d9755ecc-9">
          <mxGeometry width="50" height="50" relative="1" as="geometry">
            <mxPoint x="1310" y="520" as="sourcePoint" />
            <mxPoint x="560" y="510" as="targetPoint" />
          </mxGeometry>
        </mxCell>
        <mxCell id="zefjH6aqXYO2TZg6d5o2-8" value="" style="endArrow=classic;html=1;" edge="1" parent="1">
          <mxGeometry width="50" height="50" relative="1" as="geometry">
            <mxPoint x="500" y="620" as="sourcePoint" />
            <mxPoint x="1110" y="620" as="targetPoint" />
            <Array as="points">
              <mxPoint x="560" y="620" />
            </Array>
          </mxGeometry>
        </mxCell>
        <mxCell id="zefjH6aqXYO2TZg6d5o2-9" value="4 Units" style="text;html=1;align=center;verticalAlign=middle;resizable=0;points=[];autosize=1;strokeColor=none;" vertex="1" parent="1">
          <mxGeometry x="975" y="450" width="50" height="20" as="geometry" />
        </mxCell>
        <mxCell id="zefjH6aqXYO2TZg6d5o2-11" value="10 units" style="text;html=1;align=center;verticalAlign=middle;resizable=0;points=[];autosize=1;strokeColor=none;" vertex="1" parent="1">
          <mxGeometry x="1080" y="620" width="60" height="20" as="geometry" />
        </mxCell>
        <mxCell id="zefjH6aqXYO2TZg6d5o2-12" value="20&amp;nbsp;&amp;nbsp; 1/3 units" style="text;html=1;align=center;verticalAlign=middle;resizable=0;points=[];autosize=1;strokeColor=none;" vertex="1" parent="1">
          <mxGeometry x="730" y="930" width="80" height="20" as="geometry" />
        </mxCell>
        <mxCell id="zefjH6aqXYO2TZg6d5o2-14" value="15 1/3 Units" style="text;html=1;align=center;verticalAlign=middle;resizable=0;points=[];autosize=1;strokeColor=none;" vertex="1" parent="1">
          <mxGeometry x="720" y="620" width="80" height="20" as="geometry" />
        </mxCell>
        <mxCell id="zefjH6aqXYO2TZg6d5o2-17" value="greedy and clearly fails as the distance from 2 to 4 is slightly shorter than the distance from 2 to 3." style="text;html=1;align=center;verticalAlign=middle;resizable=0;points=[];autosize=1;strokeColor=none;" vertex="1" parent="1">
          <mxGeometry x="470" y="280" width="530" height="20" as="geometry" />
        </mxCell>
        <mxCell id="zefjH6aqXYO2TZg6d5o2-19" value="1" style="text;strokeColor=none;fillColor=none;html=1;fontSize=24;fontStyle=1;verticalAlign=middle;align=center;" vertex="1" parent="1">
          <mxGeometry x="1050" y="450" width="100" height="40" as="geometry" />
        </mxCell>
        <mxCell id="zefjH6aqXYO2TZg6d5o2-20" value="Title" style="text;strokeColor=none;fillColor=none;html=1;fontSize=24;fontStyle=1;verticalAlign=middle;align=center;" vertex="1" parent="1">
          <mxGeometry x="430" y="470" width="100" height="40" as="geometry" />
        </mxCell>
        <mxCell id="zefjH6aqXYO2TZg6d5o2-23" value="2" style="text;strokeColor=none;fillColor=none;html=1;fontSize=24;fontStyle=1;verticalAlign=middle;align=center;" vertex="1" parent="1">
          <mxGeometry x="875" y="460" width="100" height="40" as="geometry" />
        </mxCell>
        <mxCell id="zefjH6aqXYO2TZg6d5o2-24" value="4" style="text;strokeColor=none;fillColor=none;html=1;fontSize=24;fontStyle=1;verticalAlign=middle;align=center;" vertex="1" parent="1">
          <mxGeometry x="1282.5" y="460" width="100" height="40" as="geometry" />
        </mxCell>
        <mxCell id="zefjH6aqXYO2TZg6d5o2-25" value="&lt;div&gt;3&lt;/div&gt;&lt;div&gt;&lt;br&gt;&lt;/div&gt;" style="text;strokeColor=none;fillColor=none;html=1;fontSize=24;fontStyle=1;verticalAlign=middle;align=center;" vertex="1" parent="1">
          <mxGeometry x="470" y="460" width="100" height="40" as="geometry" />
        </mxCell>
        <mxCell id="zefjH6aqXYO2TZg6d5o2-26" value="tour length is approx =46 units" style="text;html=1;align=center;verticalAlign=middle;resizable=0;points=[];autosize=1;strokeColor=none;" vertex="1" parent="1">
          <mxGeometry x="890" y="1020" width="180" height="20" as="geometry" />
        </mxCell>
        <mxCell id="zefjH6aqXYO2TZg6d5o2-27" value="" style="verticalLabelPosition=bottom;aspect=fixed;html=1;verticalAlign=top;strokeColor=none;shape=mxgraph.citrix.directory_server;rounded=0;shadow=0;comic=0;fontFamily=Verdana;" vertex="1" parent="1">
          <mxGeometry x="1060" y="800" width="65" height="88.5" as="geometry" />
        </mxCell>
        <mxCell id="zefjH6aqXYO2TZg6d5o2-28" value="" style="verticalLabelPosition=bottom;aspect=fixed;html=1;verticalAlign=top;strokeColor=none;shape=mxgraph.citrix.tower_server;rounded=0;shadow=0;comic=0;fontFamily=Verdana;" vertex="1" parent="1">
          <mxGeometry x="465" y="803.5" width="65" height="85" as="geometry" />
        </mxCell>
        <mxCell id="zefjH6aqXYO2TZg6d5o2-29" value="" style="verticalLabelPosition=bottom;aspect=fixed;html=1;verticalAlign=top;strokeColor=none;shape=mxgraph.citrix.tower_server;rounded=0;shadow=0;comic=0;fontFamily=Verdana;" vertex="1" parent="1">
          <mxGeometry x="890" y="800" width="65" height="85" as="geometry" />
        </mxCell>
        <mxCell id="zefjH6aqXYO2TZg6d5o2-30" value="" style="verticalLabelPosition=bottom;aspect=fixed;html=1;verticalAlign=top;strokeColor=none;shape=mxgraph.citrix.tower_server;rounded=0;shadow=0;comic=0;fontFamily=Verdana;" vertex="1" parent="1">
          <mxGeometry x="1300" y="803.5" width="65" height="85" as="geometry" />
        </mxCell>
        <mxCell id="zefjH6aqXYO2TZg6d5o2-31" value="" style="endArrow=classic;html=1;entryX=0.569;entryY=-0.047;entryDx=0;entryDy=0;entryPerimeter=0;" edge="1" target="zefjH6aqXYO2TZg6d5o2-29" parent="1">
          <mxGeometry width="50" height="50" relative="1" as="geometry">
            <mxPoint x="1090" y="796" as="sourcePoint" />
            <mxPoint x="970" y="830" as="targetPoint" />
            <Array as="points" />
          </mxGeometry>
        </mxCell>
        <mxCell id="zefjH6aqXYO2TZg6d5o2-34" value="" style="endArrow=classic;html=1;" edge="1" parent="1">
          <mxGeometry width="50" height="50" relative="1" as="geometry">
            <mxPoint x="490" y="919.5" as="sourcePoint" />
            <mxPoint x="1320" y="920" as="targetPoint" />
            <Array as="points">
              <mxPoint x="550" y="919.5" />
            </Array>
          </mxGeometry>
        </mxCell>
        <mxCell id="zefjH6aqXYO2TZg6d5o2-35" value="4 Units" style="text;html=1;align=center;verticalAlign=middle;resizable=0;points=[];autosize=1;strokeColor=none;" vertex="1" parent="1">
          <mxGeometry x="975" y="740" width="50" height="20" as="geometry" />
        </mxCell>
        <mxCell id="zefjH6aqXYO2TZg6d5o2-36" value="10 units" style="text;html=1;align=center;verticalAlign=middle;resizable=0;points=[];autosize=1;strokeColor=none;" vertex="1" parent="1">
          <mxGeometry x="1080" y="910" width="60" height="20" as="geometry" />
        </mxCell>
        <mxCell id="zefjH6aqXYO2TZg6d5o2-37" value="10 &amp;nbsp; 1/3 units" style="text;html=1;align=center;verticalAlign=middle;resizable=0;points=[];autosize=1;strokeColor=none;" vertex="1" parent="1">
          <mxGeometry x="710" y="770" width="80" height="20" as="geometry" />
        </mxCell>
        <mxCell id="zefjH6aqXYO2TZg6d5o2-39" value="1" style="text;strokeColor=none;fillColor=none;html=1;fontSize=24;fontStyle=1;verticalAlign=middle;align=center;" vertex="1" parent="1">
          <mxGeometry x="1050" y="740" width="100" height="40" as="geometry" />
        </mxCell>
        <mxCell id="zefjH6aqXYO2TZg6d5o2-40" value="Title" style="text;strokeColor=none;fillColor=none;html=1;fontSize=24;fontStyle=1;verticalAlign=middle;align=center;" vertex="1" parent="1">
          <mxGeometry x="430" y="760" width="100" height="40" as="geometry" />
        </mxCell>
        <mxCell id="zefjH6aqXYO2TZg6d5o2-41" value="2" style="text;strokeColor=none;fillColor=none;html=1;fontSize=24;fontStyle=1;verticalAlign=middle;align=center;" vertex="1" parent="1">
          <mxGeometry x="875" y="750" width="100" height="40" as="geometry" />
        </mxCell>
        <mxCell id="zefjH6aqXYO2TZg6d5o2-42" value="4" style="text;strokeColor=none;fillColor=none;html=1;fontSize=24;fontStyle=1;verticalAlign=middle;align=center;" vertex="1" parent="1">
          <mxGeometry x="1282.5" y="750" width="100" height="40" as="geometry" />
        </mxCell>
        <mxCell id="zefjH6aqXYO2TZg6d5o2-43" value="&lt;div&gt;3&lt;/div&gt;&lt;div&gt;&lt;br&gt;&lt;/div&gt;" style="text;strokeColor=none;fillColor=none;html=1;fontSize=24;fontStyle=1;verticalAlign=middle;align=center;" vertex="1" parent="1">
          <mxGeometry x="470" y="750" width="100" height="40" as="geometry" />
        </mxCell>
        <mxCell id="zefjH6aqXYO2TZg6d5o2-44" value="" style="endArrow=classic;html=1;exitX=0.369;exitY=0.047;exitDx=0;exitDy=0;exitPerimeter=0;entryX=0.492;entryY=-0.021;entryDx=0;entryDy=0;entryPerimeter=0;" edge="1" parent="1" source="zefjH6aqXYO2TZg6d5o2-29" target="zefjH6aqXYO2TZg6d5o2-28">
          <mxGeometry width="50" height="50" relative="1" as="geometry">
            <mxPoint x="470" y="700" as="sourcePoint" />
            <mxPoint x="330" y="700" as="targetPoint" />
          </mxGeometry>
        </mxCell>
        <mxCell id="zefjH6aqXYO2TZg6d5o2-46" value="" style="endArrow=classic;html=1;exitX=0.415;exitY=1.075;exitDx=0;exitDy=0;exitPerimeter=0;" edge="1" parent="1" source="zefjH6aqXYO2TZg6d5o2-42">
          <mxGeometry width="50" height="50" relative="1" as="geometry">
            <mxPoint x="1330" y="800" as="sourcePoint" />
            <mxPoint x="1090" y="790" as="targetPoint" />
          </mxGeometry>
        </mxCell>
        <mxCell id="zefjH6aqXYO2TZg6d5o2-47" value="6 units" style="text;html=1;strokeColor=none;fillColor=none;align=center;verticalAlign=middle;whiteSpace=wrap;rounded=0;" vertex="1" parent="1">
          <mxGeometry x="1180" y="740" width="40" height="20" as="geometry" />
        </mxCell>
      </root>
    </mxGraphModel>
  </diagram>
</mxfile>
